<svg version="1.1" xmlns="http://www.w3.org/2000/svg" viewBox="0 0 850 400" width="850" height="400">
  <defs>
    <style>
      /* Styles for the hoodie */
      .hoodie-fill { fill: #ffffff; stroke: #333333; stroke-width: 2; }
      
      /* Styles for measurement arrows */
      .arrow-line { stroke: #333333; stroke-width: 2; }
      .arrow-text { font-family: Arial, sans-serif; font-size: 14px; fill: #333333; font-weight: bold; }
      .arrow-head { fill: #333333; }
      
      /* Styles for the table */
      .table-text { font-family: Arial, sans-serif; font-size: 12px; fill: #000000; text-anchor: middle; }
      .table-header { font-weight: bold; font-size: 13px; }
      .table-line { stroke: #000000; stroke-width: 1; } 
    </style>
    
    <marker id="arrowhead" markerWidth="10" markerHeight="7" refX="9" refY="3.5" orient="auto">
      <polygon points="0 0, 10 3.5, 0 7" fill="#333333" />
    </marker>
    <marker id="arrowhead-start" markerWidth="10" markerHeight="7" refX="1" refY="3.5" orient="auto">
      <polygon points="10 0, 0 3.5, 10 7" fill="#333333" />
    </marker>
  </defs>

  <g id="left-column-hoodie" transform="translate(20, 20)">
      <g transform="translate(0, 0) scale(1.0)">
         <path class="hoodie-fill" d="M176.2,218.497h-47.971c-0.603,9.548-3.716,20.083-8.962,29.98c-2.266,4.273-4.859,8.296-7.69,11.963h81.275
    c-2.831-3.667-5.425-7.69-7.691-11.963C179.916,238.581,176.804,228.046,176.2,218.497z"/>
         <path class="hoodie-fill" d="M302.819,183.478l-84.082-85.638c-4.173-4.25-9.878-6.644-15.834-6.644h-14.341c7.845-15.915,12.623-33.403,12.623-43.027
    c0-20.619-21.925-42.333-48.971-42.333s-48.971,21.715-48.971,42.333c0,9.492,4.65,26.634,12.304,42.372v0.655h-14.022
    c-5.956,0-11.662,2.394-15.834,6.644L1.61,183.478c-2.045,2.083-2.155,5.385-0.254,7.6l17.576,20.47
    c1.96,2.282,5.369,2.617,7.735,0.76l53.12-41.687L63.928,286.117c-0.432,3.144,0.518,6.321,2.603,8.712
    c2.086,2.392,5.104,3.764,8.277,3.764h154.813c3.173,0,6.191-1.373,8.277-3.764c2.086-2.392,3.035-5.569,2.603-8.712
    l-15.859-115.496l53.12,41.687c2.366,1.857,5.775,1.522,7.735-0.76l17.576-20.47C304.975,188.862,304.865,185.561,302.819,183.478z
     M152.215,41.502c13.636,0,24.69,10.948,24.69,21.343s-11.054,38.99-24.69,38.99c-13.636,0-24.69-28.594-24.69-38.99
    S138.579,41.502,152.215,41.502z M218.222,270.218c-0.991,3.11-3.881,5.223-7.146,5.223H93.353c-3.265,0-6.154-2.112-7.146-5.223
    c-0.992-3.11,0.143-6.505,2.806-8.395c6.41-4.547,12.447-11.782,17-20.371c5.378-10.144,8.052-21.232,7.154-29.661
    c-0.225-2.115,0.459-4.227,1.881-5.809c1.423-1.582,3.45-2.485,5.577-2.485h63.178c2.127,0,4.154,0.903,5.577,2.485
    c1.422,1.582,2.105,3.693,1.881,5.809c-0.898,8.431,1.776,19.518,7.153,29.661c0,0,0,0,0.001,0c4.553,8.589,10.59,15.824,17,20.371
    C218.079,263.713,219.214,267.108,218.222,270.218z"/>
      </g>

    <line x1="80" y1="120" x2="220" y2="120" class="arrow-line" marker-start="url(#arrowhead-start)" marker-end="url(#arrowhead)" />
    <text x="150" y="115" text-anchor="middle" class="arrow-text">CHEST</text>

    <line x1="160" y1="60" x2="160" y2="280" class="arrow-line" marker-start="url(#arrowhead-start)" marker-end="url(#arrowhead)" />
    <text x="155" y="170" text-anchor="middle" transform="rotate(-90, 155, 170)" class="arrow-text" dy="-5">LENGTH</text>
  </g>

  <g transform="translate(350, 80)">

            <line x1="0" y1="0" x2="480" y2="0" class="table-line" />
            <line x1="0" y1="40" x2="480" y2="40" class="table-line" />
            <line x1="0" y1="80" x2="480" y2="80" class="table-line" />
            <line x1="0" y1="120" x2="480" y2="120" class="table-line" />
            <line x1="0" y1="160" x2="480" y2="160" class="table-line" />
            <line x1="0" y1="200" x2="480" y2="200" class="table-line" /> <line x1="0" y1="0" x2="0" y2="200" class="table-line" />
            <line x1="80" y1="0" x2="80" y2="200" class="table-line" />
            <line x1="137" y1="0" x2="137" y2="200" class="table-line" />
            <line x1="194" y1="0" x2="194" y2="200" class="table-line" />
            <line x1="251" y1="0" x2="251" y2="200" class="table-line" />
            <line x1="308" y1="0" x2="308" y2="200" class="table-line" />
            <line x1="365" y1="0" x2="365" y2="200" class="table-line" />
            <line x1="422" y1="0" x2="422" y2="200" class="table-line" />
            <line x1="480" y1="0" x2="480" y2="200" class="table-line" />

            <text x="40" y="25" class="table-text table-header">SIZE</text>
            <text x="108" y="25" class="table-text table-header">XS</text>
            <text x="165" y="25" class="table-text table-header">S</text>
            <text x="222" y="25" class="table-text table-header">M</text>
            <text x="279" y="25" class="table-text table-header">L</text>
            <text x="336" y="25" class="table-text table-header">XL</text>
            <text x="393" y="25" class="table-text table-header">XXL</text>
            <text x="451" y="25" class="table-text table-header">XXXL</text>

            <text x="40" y="55" class="table-text table-header">CHEST</text>
            <text x="40" y="70" class="table-text" font-size="10">cm</text>
            <text x="108" y="65" class="table-text">50</text>
            <text x="165" y="65" class="table-text">53</text>
            <text x="222" y="65" class="table-text">56</text>
            <text x="279" y="65" class="table-text">59</text>
            <text x="336" y="65" class="table-text">62</text>
            <text x="393" y="65" class="table-text">65</text>
            <text x="451" y="65" class="table-text">--</text>

            <text x="40" y="95" class="table-text table-header">LENGTH</text>
            <text x="40" y="110" class="table-text" font-size="10">cm</text>
            <text x="108" y="105" class="table-text">86</text>
            <text x="165" y="105" class="table-text">88</text>
            <text x="222" y="105" class="table-text">90</text>
            <text x="279" y="105" class="table-text">92</text>
            <text x="336" y="105" class="table-text">94</text>
            <text x="393" y="105" class="table-text">96</text>
            <text x="451" y="105" class="table-text">--</text>

            <text x="40" y="135" class="table-text table-header">CHEST</text>
            <text x="40" y="150" class="table-text" font-size="10">inch</text>
            <text x="108" y="145" class="table-text">19.6</text>
            <text x="165" y="145" class="table-text">20.8</text>
            <text x="222" y="145" class="table-text">22</text>
            <text x="279" y="145" class="table-text">23.2</text>
            <text x="336" y="145" class="table-text">24.4</text>
            <text x="393" y="145" class="table-text">25.5</text>
            <text x="451" y="145" class="table-text">--</text>

            <text x="40" y="175" class="table-text table-header">LENGTH</text>
            <text x="40" y="190" class="table-text" font-size="10">inch</text>
            <text x="108" y="185" class="table-text">33.8</text>
            <text x="165" y="185" class="table-text">34.6</text>
            <text x="222" y="185" class="table-text">35.4</text>
            <text x="279" y="185" class="table-text">36.2</text>
            <text x="336" y="185" class="table-text">37</text>
            <text x="393" y="185" class="table-text">37.7</text>
            <text x="451" y="185" class="table-text">--</text>

  </g>
</svg>