<svg version="1.1" xmlns="http://www.w3.org/2000/svg" viewBox="0 0 620 250" width="620" height="250">
  <defs>
    <style>
      /* Global Font */
      text { font-family: 'Helvetica', 'Arial', sans-serif; }

      /* T-Shirt Styles */
      .tshirt-fill { fill: #ffffff; stroke: #333333; stroke-width: 0.5; }
      
      /* Measurement Arrows */
      .arrow-line { stroke: #333333; stroke-width: 0.5; }
      .arrow-text { font-size: 2px; fill: #333333; font-weight: bold; }
      
      /* Table Styles */
      .table-line { stroke: #000000; stroke-width: 1; fill: none; }
      .table-text { font-size: 13px; fill: #000000; text-anchor: middle; alignment-baseline: middle; }
      .table-header { font-weight: bold; font-size: 12px; }
      .table-sub { font-size: 9px; font-weight: normal; } 
    </style>
    
    <marker id="arrowhead-end" markerWidth="6" markerHeight="4" refX="5" refY="2" orient="auto">
      <polygon points="0 0, 6 2, 0 4" fill="#333333" />
    </marker>
    <marker id="arrowhead-start" markerWidth="6" markerHeight="4" refX="1" refY="2" orient="auto">
      <polygon points="6 0, 0 2, 6 4" fill="#333333" />
    </marker>
  </defs>

  <g id="left-column-tshirt" transform="translate(20, 20) scale(10)">
      <path class="tshirt-fill" d="M9 5h-.16667c-.86548 0-1.70761.28071-2.4.8L3.5 8l2 3.5L8 10v9h8v-9l2.5 1.5 2-3.5-2.9333-2.2c-.6924-.51929-1.5346-.8-2.4-.8H15M9 5c0 1.5 1.5 3 3 3s3-1.5 3-3M9 5h6" />

      <line x1="4" y1="14" x2="20" y2="14" class="arrow-line" marker-start="url(#arrowhead-start)" marker-end="url(#arrowhead-end)" />
      <text x="12" y="13.2" text-anchor="middle" class="arrow-text">CHEST</text>

  </g>

  <g transform="translate(240, 90)">
    
    <line x1="0" y1="0" x2="366" y2="0" class="table-line" stroke-width="2"/> 
    <line x1="0" y1="50" x2="366" y2="50" class="table-line" /> 
    <line x1="0" y1="90" x2="366" y2="90" class="table-line" stroke-width="2"/> 

    <line x1="0" y1="0" x2="0" y2="90" class="table-line" stroke-width="2"/> <line x1="110" y1="0" x2="110" y2="90" class="table-line" /> <line x1="174" y1="0" x2="174" y2="90" class="table-line" />
    <line x1="238" y1="0" x2="238" y2="90" class="table-line" />
    <line x1="302" y1="0" x2="302" y2="90" class="table-line" />
    <line x1="366" y1="0" x2="366" y2="90" class="table-line" stroke-width="2"/> <text x="55" y="25" class="table-text table-header">YEAR</text>
    
    <text x="142" y="20" class="table-text table-header">4-6</text>
    <text x="142" y="35" class="table-text table-sub">Years</text>

    <text x="206" y="20" class="table-text table-header">6-8</text>
    <text x="206" y="35" class="table-text table-sub">Years</text>

    <text x="270" y="20" class="table-text table-header">8-10</text>
    <text x="270" y="35" class="table-text table-sub">Years</text>

    <text x="334" y="20" class="table-text table-header">10-12</text>
    <text x="334" y="35" class="table-text table-sub">Years</text>

    <text x="55" y="70" class="table-text table-header">CHEST</text>
    <text x="142" y="70" class="table-text">28"</text>
    <text x="206" y="70" class="table-text">30"</text>
    <text x="270" y="70" class="table-text">32"</text>
    <text x="334" y="70" class="table-text">34"</text>

  </g>
</svg>