<svg version="1.1" xmlns="http://www.w3.org/2000/svg" viewBox="0 0 800 320" width="800" height="320">
  <defs>
    <style>
      /* Global Font */
      text { font-family: 'Helvetica', 'Arial', sans-serif; }

      /* T-Shirt Styles */
      .tshirt-fill { fill: #ffffff; stroke: #000000; stroke-width: 0.5; }
      
      /* Measurement Arrows */
      .arrow-line { stroke: #000000; stroke-width: 0.5; }
      .arrow-text { font-size: 2px; fill: #000000; font-weight: bold; }
      
      /* Table Styles */
      .table-line { stroke: #000000; stroke-width: 1; fill: none; }
      .table-text { font-size: 13px; fill: #000000; text-anchor: middle; alignment-baseline: middle; }
      .table-header { font-weight: bold; font-size: 13px; }
      .table-sub-header { font-size: 10px; }
    </style>
    
    <marker id="arrowhead-end" markerWidth="6" markerHeight="4" refX="5" refY="2" orient="auto">
      <polygon points="0 0, 6 2, 0 4" fill="#000000" />
    </marker>
    <marker id="arrowhead-start" markerWidth="6" markerHeight="4" refX="1" refY="2" orient="auto">
      <polygon points="6 0, 0 2, 6 4" fill="#000000" />
    </marker>
  </defs>

  <g id="left-column-tshirt" transform="translate(20, 36) scale(12)">
      <path class="tshirt-fill" d="M20.38 3.46 16 2a4 4 0 0 1-8 0L3.62 3.46a2 2 0 0 0-1.34 2.23l.58 3.47a1 1 0 0 0 .99.84H6v10c0 1.1.9 2 2 2h8c1.1 0 2-.9 2-2V10h2.15a1 1 0 0 0 .99-.84l.58-3.47a2 2 0 0 0-1.34-2.23z" />

      <line x1="3.6" y1="1.5" x2="20.4" y2="1.5" class="arrow-line" marker-start="url(#arrowhead-start)" marker-end="url(#arrowhead-end)" />
      <text x="12" y="1" text-anchor="middle" class="arrow-text" font-size="1.5">SHOULDER</text>

      <line x1="6.5" y1="12" x2="17.5" y2="12" class="arrow-line" marker-start="url(#arrowhead-start)" marker-end="url(#arrowhead-end)" />
      <text x="11" y="11" text-anchor="middle" class="arrow-text">CHEST</text>

      <line x1="12" y1="3" x2="12" y2="21" class="arrow-line" marker-start="url(#arrowhead-start)" marker-end="url(#arrowhead-end)" />
      <text x="6" y="12" text-anchor="middle" transform="rotate(-90, 11, 12)" class="arrow-text">LENGTH</text>
  </g>

  <g transform="translate(360, 20)">
    
    <line x1="0" y1="0" x2="420" y2="0" class="table-line" stroke-width="2"/>
    <line x1="0" y1="40" x2="420" y2="40" class="table-line" />
    <line x1="0" y1="80" x2="420" y2="80" class="table-line" />
    <line x1="0" y1="120" x2="420" y2="120" class="table-line" />
    <line x1="0" y1="160" x2="420" y2="160" class="table-line" />
    <line x1="0" y1="200" x2="420" y2="200" class="table-line" />
    <line x1="0" y1="240" x2="420" y2="240" class="table-line" />
    <line x1="0" y1="280" x2="420" y2="280" class="table-line" stroke-width="2"/>

    <line x1="0" y1="0" x2="0" y2="280" class="table-line" stroke-width="2"/>
    <line x1="80" y1="0" x2="80" y2="280" class="table-line" />
    <line x1="180" y1="0" x2="180" y2="280" class="table-line" />
    <line x1="280" y1="0" x2="280" y2="280" class="table-line" />
    <line x1="420" y1="0" x2="420" y2="280" class="table-line" stroke-width="2"/>

    <text x="40" y="25" class="table-text table-header">SIZE</text>
    <text x="130" y="25" class="table-text table-header">CHEST</text>
    <text x="230" y="25" class="table-text table-header">LENGTH</text>
    <text x="350" y="18" class="table-text table-header">SHOULDER</text>
    <text x="350" y="32" class="table-text table-header table-sub-header">LENGTH</text>

    <text x="40" y="65" class="table-text">XS</text>
    <text x="130" y="65" class="table-text">40</text>
    <text x="230" y="65" class="table-text">28</text>
    <text x="350" y="65" class="table-text">20</text>

    <text x="40" y="105" class="table-text">S</text>
    <text x="130" y="105" class="table-text">42</text>
    <text x="230" y="105" class="table-text">28.5</text>
    <text x="350" y="105" class="table-text">21</text>

    <text x="40" y="145" class="table-text">M</text>
    <text x="130" y="145" class="table-text">44</text>
    <text x="230" y="145" class="table-text">29</text>
    <text x="350" y="145" class="table-text">22</text>

    <text x="40" y="185" class="table-text">L</text>
    <text x="130" y="185" class="table-text">46</text>
    <text x="230" y="185" class="table-text">29.5</text>
    <text x="350" y="185" class="table-text">23</text>

    <text x="40" y="225" class="table-text">XL</text>
    <text x="130" y="225" class="table-text">48</text>
    <text x="230" y="225" class="table-text">30</text>
    <text x="350" y="225" class="table-text">24</text>

    <text x="40" y="265" class="table-text">2XL</text>
    <text x="130" y="265" class="table-text">50</text>
    <text x="230" y="265" class="table-text">30.5</text>
    <text x="350" y="265" class="table-text">25</text>

  </g>
</svg>