<svg version="1.1" xmlns="http://www.w3.org/2000/svg" viewBox="0 0 950 380" width="950" height="380">
  <defs>
    <style>
      /* Global Font */
      text { font-family: 'Helvetica', 'Arial', sans-serif; }

      /* T-Shirt Styles */
      .tshirt-fill { fill: #ffffff; stroke: #333333; stroke-width: 0.5; }
      
      /* Measurement Arrows */
      .arrow-line { stroke: #333333; stroke-width: 0.5; }
      .arrow-text { font-size: 2px; fill: #333333; font-weight: bold; }
      
      /* Table Styles */
      .table-line { stroke: #000000; stroke-width: 1; fill: none; }
      .table-text { font-size: 13px; fill: #000000; text-anchor: middle; alignment-baseline: middle; }
      .table-header { font-weight: bold; font-size: 11px; } /* Slightly smaller for multi-line headers */
      .table-sub { font-size: 9px; font-weight: normal; }
      .table-footnote { font-size: 11px; font-weight: bold; fill: #000000; text-anchor: start;}
    </style>
    
    <marker id="arrowhead-end" markerWidth="6" markerHeight="4" refX="5" refY="2" orient="auto">
      <polygon points="0 0, 6 2, 0 4" fill="#333333" />
    </marker>
    <marker id="arrowhead-start" markerWidth="6" markerHeight="4" refX="1" refY="2" orient="auto">
      <polygon points="6 0, 0 2, 6 4" fill="#333333" />
    </marker>
  </defs>

  <g id="left-column-tshirt" transform="translate(20, 20) scale(10)">
      
      <path class="tshirt-fill" d="M29.7,10.3l-3.7-3.7c-1.7-1.7-4-2.6-6.4-2.6h-0.2c-0.4,0-0.7,0.2-0.9,0.5C18,5.4,17.1,6,16,6s-2-0.6-2.6-1.5
      C13.2,4.2,12.9,4,12.6,4h-0.2C9.9,4,7.6,4.9,5.9,6.6l-3.7,3.7c-0.4,0.4-0.4,0.9-0.1,1.3l4,5C6.4,16.8,6.7,17,6.9,17
      c0.3,0,0.6-0.1,0.8-0.3L9,15.4V27c0,0.6,0.4,1,1,1h12c0.6,0,1-0.4,1-1V15.4l1.3,1.3c0.2,0.2,0.5,0.3,0.8,0.3c0.3,0,0.5-0.2,0.7-0.4
      l4-5C30.1,11.2,30.1,10.7,29.7,10.3z"/>

      <line x1="10" y1="16" x2="22" y2="16" class="arrow-line" marker-start="url(#arrowhead-start)" marker-end="url(#arrowhead-end)" />
      <text x="16" y="15" text-anchor="middle" class="arrow-text">CHEST</text>

      <line x1="26" y1="5" x2="26" y2="27" class="arrow-line" marker-start="url(#arrowhead-start)" marker-end="url(#arrowhead-end)" />
      <text x="25" y="16" text-anchor="middle" transform="rotate(-90, 25, 16)" class="arrow-text">LENGTH</text>
  </g>


  <g transform="translate(360, 20)">
    
    <line x1="0" y1="0" x2="550" y2="0" class="table-line" stroke-width="2"/>
    <line x1="0" y1="40" x2="550" y2="40" class="table-line" />
    <line x1="0" y1="80" x2="550" y2="80" class="table-line" />
    <line x1="0" y1="120" x2="550" y2="120" class="table-line" />
    <line x1="0" y1="160" x2="550" y2="160" class="table-line" />
    <line x1="0" y1="200" x2="550" y2="200" class="table-line" />
    <line x1="0" y1="240" x2="550" y2="240" class="table-line" />
    <line x1="0" y1="280" x2="550" y2="280" class="table-line" />
    <line x1="0" y1="320" x2="550" y2="320" class="table-line" stroke-width="2"/>

    <line x1="0" y1="0" x2="0" y2="320" class="table-line" stroke-width="2"/>
    <line x1="70" y1="0" x2="70" y2="320" class="table-line" />
    <line x1="150" y1="0" x2="150" y2="320" class="table-line" />
    <line x1="230" y1="0" x2="230" y2="320" class="table-line" />
    <line x1="310" y1="0" x2="310" y2="320" class="table-line" />
    <line x1="410" y1="0" x2="410" y2="320" class="table-line" />
    <line x1="550" y1="0" x2="550" y2="320" class="table-line" stroke-width="2"/>

    <text x="35" y="25" class="table-text table-header">SIZE</text>
    <text x="110" y="25" class="table-text table-header">CHEST</text>
    <text x="190" y="25" class="table-text table-header">WAIST</text>
    
    <text x="270" y="18" class="table-text table-header">SLEEVE</text>
    <text x="270" y="32" class="table-text table-header table-sub">LENGTH</text>

    <text x="360" y="18" class="table-text table-header">SHOULDER</text>
    <text x="360" y="32" class="table-text table-header table-sub">WIDTH</text>
    
    <text x="480" y="18" class="table-text table-header">PRODUCT</text>
    <text x="480" y="32" class="table-text table-header table-sub">LENGTH</text>

    <text x="35" y="65" class="table-text">S</text>
    <text x="110" y="65" class="table-text">38</text>
    <text x="190" y="65" class="table-text">38</text>
    <text x="270" y="65" class="table-text">7.5</text>
    <text x="360" y="65" class="table-text">17.0</text>
    <text x="480" y="65" class="table-text">26</text>

    <text x="35" y="105" class="table-text">M</text>
    <text x="110" y="105" class="table-text">40</text>
    <text x="190" y="105" class="table-text">40</text>
    <text x="270" y="105" class="table-text">8</text>
    <text x="360" y="105" class="table-text">17.5</text>
    <text x="480" y="105" class="table-text">27</text>

    <text x="35" y="145" class="table-text">L</text>
    <text x="110" y="145" class="table-text">42</text>
    <text x="190" y="145" class="table-text">42</text>
    <text x="270" y="145" class="table-text">8.5</text>
    <text x="360" y="145" class="table-text">18.5</text>
    <text x="480" y="145" class="table-text">28</text>

    <text x="35" y="185" class="table-text">XL</text>
    <text x="110" y="185" class="table-text">44</text>
    <text x="190" y="185" class="table-text">44</text>
    <text x="270" y="185" class="table-text">9</text>
    <text x="360" y="185" class="table-text">19.0</text>
    <text x="480" y="185" class="table-text">29</text>

    <text x="35" y="225" class="table-text">XXL</text>
    <text x="110" y="225" class="table-text">46</text>
    <text x="190" y="225" class="table-text">46</text>
    <text x="270" y="225" class="table-text">10</text>
    <text x="360" y="225" class="table-text">20.0</text>
    <text x="480" y="225" class="table-text">30</text>

    <text x="35" y="265" class="table-text">XXXL</text>
    <text x="110" y="265" class="table-text">48</text>
    <text x="190" y="265" class="table-text">48</text>
    <text x="270" y="265" class="table-text">10.5</text>
    <text x="360" y="265" class="table-text">21.0</text>
    <text x="480" y="265" class="table-text">31</text>
    
    <text x="35" y="305" class="table-text">XXXXL</text>
    <text x="110" y="305" class="table-text">50</text>
    <text x="190" y="305" class="table-text">50</text>
    <text x="270" y="305" class="table-text">11</text>
    <text x="360" y="305" class="table-text">21.5</text>
    <text x="480" y="305" class="table-text">32</text>

    <text x="0" y="345" class="table-footnote">*Measurements given are in Inches*</text>

  </g>
</svg>